<mxfile host="app.diagrams.net" modified="2024-01-29T02:18:45.544Z" agent="Mozilla/5.0 (Windows NT 10.0; Win64; x64) AppleWebKit/537.36 (KHTML, like Gecko) Chrome/121.0.0.0 Safari/537.36" version="23.0.2" etag="9UgUVo3SA_umvW2H_MxV" type="github">
  <diagram name="페이지-1" id="e495S9a1DbRk_U3V2dAE">
    <mxGraphModel>
      <root>
        <mxCell id="0" />
        <mxCell id="1" parent="0" />
      </root>
    </mxGraphModel>
  </diagram>
</mxfile>
